<mxfile host="app.diagrams.net" modified="2023-07-25T09:23:57.700Z" agent="Mozilla/5.0 (Macintosh; Intel Mac OS X 10_15_7) AppleWebKit/537.36 (KHTML, like Gecko) Chrome/109.0.0.0 Safari/537.36" etag="cJAS2WMCexDYwEkIrOqy" version="21.6.1" type="github">
  <diagram name="Page-1" id="SmWCeQwjXKHRv1JvDwKm">
    <mxGraphModel dx="1956" dy="887" grid="1" gridSize="10" guides="1" tooltips="1" connect="1" arrows="1" fold="1" page="1" pageScale="1" pageWidth="827" pageHeight="1169" math="0" shadow="0">
      <root>
        <mxCell id="0" />
        <mxCell id="1" parent="0" />
        <mxCell id="wzl6GDDgM5wECPfKfnDf-1" value="" style="rounded=0;whiteSpace=wrap;html=1;" vertex="1" parent="1">
          <mxGeometry x="40" y="80" width="490" height="210" as="geometry" />
        </mxCell>
        <mxCell id="wzl6GDDgM5wECPfKfnDf-2" value="" style="edgeStyle=orthogonalEdgeStyle;rounded=0;orthogonalLoop=1;jettySize=auto;html=1;" edge="1" parent="1" source="wzl6GDDgM5wECPfKfnDf-3" target="wzl6GDDgM5wECPfKfnDf-5">
          <mxGeometry relative="1" as="geometry" />
        </mxCell>
        <mxCell id="wzl6GDDgM5wECPfKfnDf-3" value="Transfers" style="rounded=1;whiteSpace=wrap;html=1;" vertex="1" parent="1">
          <mxGeometry x="130" y="369" width="120" height="60" as="geometry" />
        </mxCell>
        <mxCell id="wzl6GDDgM5wECPfKfnDf-4" value="" style="edgeStyle=orthogonalEdgeStyle;rounded=0;orthogonalLoop=1;jettySize=auto;html=1;" edge="1" parent="1" source="wzl6GDDgM5wECPfKfnDf-5" target="wzl6GDDgM5wECPfKfnDf-7">
          <mxGeometry relative="1" as="geometry" />
        </mxCell>
        <mxCell id="wzl6GDDgM5wECPfKfnDf-5" value="Out-bound" style="whiteSpace=wrap;html=1;rounded=1;" vertex="1" parent="1">
          <mxGeometry x="130" y="300" width="120" height="40" as="geometry" />
        </mxCell>
        <mxCell id="wzl6GDDgM5wECPfKfnDf-6" value="" style="edgeStyle=orthogonalEdgeStyle;rounded=0;orthogonalLoop=1;jettySize=auto;html=1;" edge="1" parent="1" source="wzl6GDDgM5wECPfKfnDf-7" target="wzl6GDDgM5wECPfKfnDf-9">
          <mxGeometry relative="1" as="geometry" />
        </mxCell>
        <mxCell id="wzl6GDDgM5wECPfKfnDf-7" value="Request: [IBAN, Sort Code, FName, Email]" style="whiteSpace=wrap;html=1;rounded=1;" vertex="1" parent="1">
          <mxGeometry x="90" y="190" width="200" height="60" as="geometry" />
        </mxCell>
        <mxCell id="wzl6GDDgM5wECPfKfnDf-8" value="" style="edgeStyle=orthogonalEdgeStyle;rounded=0;orthogonalLoop=1;jettySize=auto;html=1;" edge="1" parent="1" source="wzl6GDDgM5wECPfKfnDf-9" target="wzl6GDDgM5wECPfKfnDf-11">
          <mxGeometry relative="1" as="geometry" />
        </mxCell>
        <mxCell id="wzl6GDDgM5wECPfKfnDf-9" value="Tribe: Initiate Transfer" style="whiteSpace=wrap;html=1;rounded=1;" vertex="1" parent="1">
          <mxGeometry x="100" y="100" width="180" height="60" as="geometry" />
        </mxCell>
        <mxCell id="wzl6GDDgM5wECPfKfnDf-10" value="" style="edgeStyle=orthogonalEdgeStyle;rounded=0;orthogonalLoop=1;jettySize=auto;html=1;" edge="1" parent="1" source="wzl6GDDgM5wECPfKfnDf-11" target="wzl6GDDgM5wECPfKfnDf-13">
          <mxGeometry relative="1" as="geometry" />
        </mxCell>
        <mxCell id="wzl6GDDgM5wECPfKfnDf-11" value="Tribe: Webhook:&lt;br&gt;Notify Abrod" style="whiteSpace=wrap;html=1;rounded=1;" vertex="1" parent="1">
          <mxGeometry x="360" y="100" width="120" height="60" as="geometry" />
        </mxCell>
        <mxCell id="wzl6GDDgM5wECPfKfnDf-12" value="" style="edgeStyle=orthogonalEdgeStyle;rounded=0;orthogonalLoop=1;jettySize=auto;html=1;" edge="1" parent="1" source="wzl6GDDgM5wECPfKfnDf-13" target="wzl6GDDgM5wECPfKfnDf-15">
          <mxGeometry relative="1" as="geometry" />
        </mxCell>
        <mxCell id="wzl6GDDgM5wECPfKfnDf-13" value="Response:&amp;nbsp; ID, Status, Full detail" style="whiteSpace=wrap;html=1;rounded=1;" vertex="1" parent="1">
          <mxGeometry x="360" y="210" width="120" height="60" as="geometry" />
        </mxCell>
        <mxCell id="wzl6GDDgM5wECPfKfnDf-14" value="" style="edgeStyle=orthogonalEdgeStyle;rounded=0;orthogonalLoop=1;jettySize=auto;html=1;" edge="1" parent="1" source="wzl6GDDgM5wECPfKfnDf-15" target="wzl6GDDgM5wECPfKfnDf-16">
          <mxGeometry relative="1" as="geometry" />
        </mxCell>
        <mxCell id="wzl6GDDgM5wECPfKfnDf-15" value="Check Balance: Tribe" style="whiteSpace=wrap;html=1;rounded=1;" vertex="1" parent="1">
          <mxGeometry x="330" y="369" width="180" height="60" as="geometry" />
        </mxCell>
        <mxCell id="wzl6GDDgM5wECPfKfnDf-16" value="Store Balance" style="whiteSpace=wrap;html=1;rounded=1;" vertex="1" parent="1">
          <mxGeometry x="530" y="369" width="120" height="60" as="geometry" />
        </mxCell>
        <mxCell id="wzl6GDDgM5wECPfKfnDf-17" value="" style="edgeStyle=orthogonalEdgeStyle;rounded=0;orthogonalLoop=1;jettySize=auto;html=1;" edge="1" parent="1" source="wzl6GDDgM5wECPfKfnDf-18" target="wzl6GDDgM5wECPfKfnDf-20">
          <mxGeometry relative="1" as="geometry" />
        </mxCell>
        <mxCell id="wzl6GDDgM5wECPfKfnDf-18" value="External Source" style="rounded=1;whiteSpace=wrap;html=1;" vertex="1" parent="1">
          <mxGeometry x="530" y="690" width="120" height="60" as="geometry" />
        </mxCell>
        <mxCell id="wzl6GDDgM5wECPfKfnDf-19" value="" style="edgeStyle=orthogonalEdgeStyle;rounded=0;orthogonalLoop=1;jettySize=auto;html=1;" edge="1" parent="1" source="wzl6GDDgM5wECPfKfnDf-20" target="wzl6GDDgM5wECPfKfnDf-22">
          <mxGeometry relative="1" as="geometry" />
        </mxCell>
        <mxCell id="wzl6GDDgM5wECPfKfnDf-20" value="Inbound" style="whiteSpace=wrap;html=1;rounded=1;" vertex="1" parent="1">
          <mxGeometry x="530" y="600" width="120" height="60" as="geometry" />
        </mxCell>
        <mxCell id="wzl6GDDgM5wECPfKfnDf-21" value="" style="edgeStyle=orthogonalEdgeStyle;rounded=0;orthogonalLoop=1;jettySize=auto;html=1;" edge="1" parent="1" source="wzl6GDDgM5wECPfKfnDf-22" target="wzl6GDDgM5wECPfKfnDf-24">
          <mxGeometry relative="1" as="geometry" />
        </mxCell>
        <mxCell id="wzl6GDDgM5wECPfKfnDf-22" value="Tribe Webhook: Notify Abrod" style="whiteSpace=wrap;html=1;rounded=1;" vertex="1" parent="1">
          <mxGeometry x="360" y="600" width="120" height="60" as="geometry" />
        </mxCell>
        <mxCell id="wzl6GDDgM5wECPfKfnDf-23" value="" style="edgeStyle=orthogonalEdgeStyle;rounded=0;orthogonalLoop=1;jettySize=auto;html=1;" edge="1" parent="1" source="wzl6GDDgM5wECPfKfnDf-24" target="wzl6GDDgM5wECPfKfnDf-15">
          <mxGeometry relative="1" as="geometry" />
        </mxCell>
        <mxCell id="wzl6GDDgM5wECPfKfnDf-24" value="Response:&amp;nbsp; ID, Status, Full detail" style="whiteSpace=wrap;html=1;rounded=1;" vertex="1" parent="1">
          <mxGeometry x="360" y="510" width="120" height="60" as="geometry" />
        </mxCell>
      </root>
    </mxGraphModel>
  </diagram>
</mxfile>
